<svg xmlns="http://www.w3.org/2000/svg" width="20" height="21" viewBox="0 0 20 21">
  <g id="Frame_1000003819" data-name="Frame 1000003819" transform="translate(-29.5 -8)">
    <path id="Path_35801" data-name="Path 35801" d="M48.467,15.412H33.36a.793.793,0,0,0-.788.721l-.355,4.3a2.884,2.884,0,0,0,2.866,3.133H46.035a2.956,2.956,0,0,0,2.885-2.7l.325-4.615A.772.772,0,0,0,48.467,15.412Z" fill="#e6e6e6"/>
    <path id="Path_35802" data-name="Path 35802" d="M33.035,10.658l-.2,2.421a.783.783,0,0,0,.788.85H48.7a.787.787,0,0,0,.788-.731,2.918,2.918,0,0,0-2.945-3.172h-12.1a2.7,2.7,0,0,0-.6-1.2A2.615,2.615,0,0,0,31.952,8H30.239a.741.741,0,0,0,0,1.482h1.714a1.1,1.1,0,0,1,.8.346A1.115,1.115,0,0,1,33.035,10.658Z" fill="#e6e6e6"/>
    <path id="Path_35803" data-name="Path 35803" d="M36.394,29a1.729,1.729,0,1,0-1.723-1.729A1.726,1.726,0,0,0,36.394,29Z" fill="#e6e6e6"/>
    <path id="Path_35804" data-name="Path 35804" d="M44.272,29a1.729,1.729,0,1,0-1.723-1.729A1.726,1.726,0,0,0,44.272,29Z" fill="#e6e6e6"/>
  </g>
</svg>
