<svg xmlns="http://www.w3.org/2000/svg" width="9.784" height="18.161" viewBox="0 0 9.784 18.161">
  <path id="Path_35783" data-name="Path 35783" d="M6159.719,99.228a3.759,3.759,0,0,0-.509.366q-4.069,4.056-8.13,8.121a.723.723,0,0,0-.252.807,1.112,1.112,0,0,0,.262.37q2.862,2.87,5.729,5.733,1.235,1.235,2.473,2.468a1.135,1.135,0,0,0,.341.245.671.671,0,0,0,.8-.245.679.679,0,0,0-.024-.839,2.186,2.186,0,0,0-.169-.181q-3.8-3.806-7.612-7.611a1.251,1.251,0,0,0-.173-.123v-.074a1.234,1.234,0,0,0,.172-.122q3.827-3.823,7.651-7.647a.748.748,0,0,0,.25-.765.759.759,0,0,0-.525-.5Z" transform="translate(-6150.783 -99.228)" fill="#f33f41"/>
</svg>
