<svg xmlns="http://www.w3.org/2000/svg" width="18.458" height="16.56" viewBox="0 0 18.458 16.56">
  <path id="Path_35850" data-name="Path 35850" d="M11.945,594.619a.934.934,0,0,0,.371-.081.964.964,0,0,0,.307-.2l7.188-7.188a2.909,2.909,0,0,0,.536-.71,1.706,1.706,0,0,0,.189-.8,2.033,2.033,0,0,0-.189-.854,2.508,2.508,0,0,0-.536-.756l-3.457-3.457a2.351,2.351,0,0,0-.7-.51,1.932,1.932,0,0,0-.8-.162,2,2,0,0,0-.807.162,2.172,2.172,0,0,0-.7.51l-.8.8,1.706,1.712a1.745,1.745,0,0,1,.408.613,1.918,1.918,0,0,1,.136.7,1.609,1.609,0,0,1-1.661,1.661,2.261,2.261,0,0,1-.692-.108,1.493,1.493,0,0,1-.608-.378l-1.764-1.757L6.081,587.8a.921.921,0,0,0-.21.318.977.977,0,0,0-.07.36.734.734,0,0,0,.209.538.721.721,0,0,0,.536.212.922.922,0,0,0,.371-.083.962.962,0,0,0,.307-.2l2.922-2.922.653.653L7.881,589.6a.917.917,0,0,0-.21.317.977.977,0,0,0-.07.36.746.746,0,0,0,.745.744.935.935,0,0,0,.371-.081.964.964,0,0,0,.307-.2l3.135-3.13.652.653L9.681,591.4a.89.89,0,0,0-.2.307.956.956,0,0,0-.079.371.746.746,0,0,0,.745.744.973.973,0,0,0,.36-.07.931.931,0,0,0,.318-.209l3.135-3.13.652.653L11.475,593.2a.9.9,0,0,0-.21.336,1.078,1.078,0,0,0-.07.36.664.664,0,0,0,.23.526.769.769,0,0,0,.52.2Zm-.006.922a1.637,1.637,0,0,1-1.217-.52,1.572,1.572,0,0,1-.444-1.284,1.823,1.823,0,0,1-1.3-.468,1.638,1.638,0,0,1-.5-1.331,1.776,1.776,0,0,1-1.346-.489,1.647,1.647,0,0,1-.448-1.311A1.875,1.875,0,0,1,5.4,589.7a1.526,1.526,0,0,1-.518-1.228,1.944,1.944,0,0,1,.138-.71,1.794,1.794,0,0,1,.406-.625l4.639-4.633,2.381,2.381a.92.92,0,0,0,.677.28.756.756,0,0,0,.524-.207.693.693,0,0,0,.227-.537.93.93,0,0,0-.078-.389.948.948,0,0,0-.2-.289l-3.172-3.172a2.324,2.324,0,0,0-.713-.51,1.992,1.992,0,0,0-.81-.162,1.88,1.88,0,0,0-.789.162,2.457,2.457,0,0,0-.7.51L4.6,583.387a2.293,2.293,0,0,0-.479.705,2.2,2.2,0,0,0-.194.845,2.467,2.467,0,0,0,.053.6,2.062,2.062,0,0,0,.2.542l-.7.7a3.131,3.131,0,0,1-.363-.853A3.447,3.447,0,0,1,3,584.939a3.238,3.238,0,0,1,.252-1.2,3.167,3.167,0,0,1,.69-1.024l2.789-2.789a3.356,3.356,0,0,1,1.021-.71,2.921,2.921,0,0,1,1.164-.231,2.839,2.839,0,0,1,1.155.232,3.321,3.321,0,0,1,1.007.709l.8.8.8-.8a3.4,3.4,0,0,1,1.011-.71,2.858,2.858,0,0,1,1.155-.231,2.9,2.9,0,0,1,1.164.232,3.273,3.273,0,0,1,1.015.709l3.434,3.434a3.452,3.452,0,0,1,.736,1.07,3.027,3.027,0,0,1,.259,1.221A2.6,2.6,0,0,1,21.2,586.8a3.774,3.774,0,0,1-.737,1.007l-7.188,7.182a1.8,1.8,0,0,1-.625.419A1.939,1.939,0,0,1,11.939,595.541Z" transform="translate(-2.999 -578.981)" fill="#f33f41"/>
</svg>
