<svg xmlns="http://www.w3.org/2000/svg" width="20.213" height="22" viewBox="0 0 20.213 22">
  <g id="Group_4030" data-name="Group 4030" transform="translate(-318.718 -403.704)">
    <path id="Path_35880" data-name="Path 35880" d="M297.7,41h5.6a4.319,4.319,0,0,1,3.18,1.469,5.212,5.212,0,0,1,1.3,3.508v6.046a5.212,5.212,0,0,1-1.3,3.508A4.32,4.32,0,0,1,303.3,57h-5.6a4.317,4.317,0,0,1-3.18-1.469,5.209,5.209,0,0,1-1.3-3.508V45.978a5.21,5.21,0,0,1,1.3-3.509A4.319,4.319,0,0,1,297.7,41Z" transform="translate(26.5 363.704)" fill="none" stroke="#f33f41" stroke-linecap="round" stroke-linejoin="round" stroke-width="2" fill-rule="evenodd"/>
    <path id="Path_35881" data-name="Path 35881" d="M299.289,61h6.2c3.315-.042,5.973-3.026,5.936-6.667V47.666" transform="translate(26.5 363.704)" fill="none" stroke="#f33f41" stroke-linecap="round" stroke-linejoin="round" stroke-width="2"/>
  </g>
</svg>
