<svg xmlns="http://www.w3.org/2000/svg" width="20.953" height="17.325" viewBox="0 0 20.953 17.325">
  <path id="Path_35837" data-name="Path 35837" d="M20.255,346a.7.7,0,0,0,.7-.7v-.931c0-4.109-1.247-5.362-5.337-5.362H6.337C2.247,339,1,340.253,1,344.362v.471a.7.7,0,0,0,.7.7,1.629,1.629,0,0,1,0,3.258.7.7,0,0,0-.7.7v.471c0,4.109,1.247,5.362,5.337,5.362h9.278c4.09,0,5.337-1.253,5.337-5.362a.7.7,0,0,0-.7-.7,1.633,1.633,0,0,1,0-3.267ZM7.984,344.031a1,1,0,1,1-1,1A1,1,0,0,1,7.984,344.031Zm5.986,7.015a1,1,0,1,1,.988-1A.988.988,0,0,1,13.969,351.046Zm.9-6.414-6.714,6.744a.742.742,0,0,1-1.058,0,.758.758,0,0,1,0-1.062l6.714-6.744a.749.749,0,0,1,1.058,0A.758.758,0,0,1,14.867,344.632Z" transform="translate(-0.5 -338.5)" fill="none" stroke="#f33f41" stroke-width="1"/>
</svg>
