<svg xmlns="http://www.w3.org/2000/svg" width="14" height="17.111" viewBox="0 0 14 17.111">
  <path id="Path_35831" data-name="Path 35831" d="M7.75,210.111a1.7,1.7,0,0,1-1.235-.5A1.631,1.631,0,0,1,6,208.4V194.711a1.627,1.627,0,0,1,.515-1.208A1.708,1.708,0,0,1,7.75,193h10.5a1.706,1.706,0,0,1,1.236.5A1.626,1.626,0,0,1,20,194.711V208.4a1.631,1.631,0,0,1-.514,1.209,1.7,1.7,0,0,1-1.236.5Zm0-1.711h10.5V194.711H7.75Zm.875-1.711h8.75l-3.019-3.85-2.012,2.567-1.356-1.711Z" transform="translate(-6 -193)" fill="#f33f41"/>
</svg>
