<svg xmlns="http://www.w3.org/2000/svg" width="19.104" height="18.236" viewBox="0 0 19.104 18.236">
  <path id="Path_35844" data-name="Path 35844" d="M18.635,486.607H15.413c.036-.03.073-.059.108-.091a2.682,2.682,0,0,0,.91-1.954,2.963,2.963,0,0,0-.876-2.191,2.993,2.993,0,0,0-1.013-.661,3.031,3.031,0,0,0-1.194-.209,2.742,2.742,0,0,0-1.08.248,2.711,2.711,0,0,0-.89.656,5,5,0,0,0-.827,1.32,5,5,0,0,0-.827-1.32,2.711,2.711,0,0,0-.89-.656,2.742,2.742,0,0,0-1.08-.248,3.031,3.031,0,0,0-1.194.209,2.982,2.982,0,0,0-1.679,1.666,2.958,2.958,0,0,0-.21,1.185,2.682,2.682,0,0,0,.91,1.954c.035.03.072.059.107.091H2.47a1.475,1.475,0,0,0-1.039.427A1.453,1.453,0,0,0,1,488.066v2.918a1.455,1.455,0,0,0,.43,1.032,1.475,1.475,0,0,0,1.039.427v5.835a1.453,1.453,0,0,0,.43,1.032,1.475,1.475,0,0,0,1.039.427H17.165a1.475,1.475,0,0,0,1.039-.427,1.453,1.453,0,0,0,.43-1.032v-5.835a1.475,1.475,0,0,0,1.039-.427,1.454,1.454,0,0,0,.43-1.032v-2.918a1.453,1.453,0,0,0-.43-1.032A1.475,1.475,0,0,0,18.635,486.607Zm-6.154-3.236a1.25,1.25,0,0,1,.416-.3,1.283,1.283,0,0,1,.5-.11h.045a1.551,1.551,0,0,1,.591.122,1.519,1.519,0,0,1,.822.844,1.5,1.5,0,0,1,.1.59,1.245,1.245,0,0,1-.413.912,6.15,6.15,0,0,1-3.215,1.13A6.128,6.128,0,0,1,12.481,483.371Zm-5.887.033a1.534,1.534,0,0,1,1.073-.445h.045a1.268,1.268,0,0,1,.5.11,1.252,1.252,0,0,1,.416.3,6.034,6.034,0,0,1,1.138,3.184,6.1,6.1,0,0,1-3.207-1.13,1.242,1.242,0,0,1-.413-.912,1.506,1.506,0,0,1,.443-1.108ZM2.47,488.066H9.817v2.918H2.47Zm1.47,4.377H9.817v5.835H3.939Zm13.226,5.835H11.287v-5.835h5.878Zm1.47-7.294H11.287v-2.918h7.348Z" transform="translate(-1 -481.5)" fill="#f33f41"/>
</svg>
