<svg xmlns="http://www.w3.org/2000/svg" width="21.852" height="21.852" viewBox="0 0 21.852 21.852">
  <path id="Vector" d="M1.067,6.362C.5,7.4.5,8.648.5,11.149v1.662c0,4.262,0,6.393,1.28,7.717s3.34,1.324,7.461,1.324h4.37c4.12,0,6.181,0,7.461-1.324s1.28-3.455,1.28-7.717V11.149c0-2.5,0-3.75-.567-4.787s-1.6-1.68-3.676-2.966L15.923,2.04C13.732.68,12.636,0,11.426,0S9.12.68,6.929,2.04L4.744,3.4C2.671,4.682,1.635,5.326,1.067,6.362Zm9.539,11.12a.819.819,0,1,0,1.639,0V14.2a.819.819,0,1,0-1.639,0Z" transform="translate(-0.5)" fill="#f33f41" fill-rule="evenodd"/>
</svg>
