<svg xmlns="http://www.w3.org/2000/svg" width="18" height="18" viewBox="0 0 18 18">
  <path id="Path_35821" data-name="Path 35821" d="M2.817,68A1.778,1.778,0,0,1,1,66.183V51.817A1.78,1.78,0,0,1,2.817,50H17.183A1.78,1.78,0,0,1,19,51.817V66.183A1.778,1.778,0,0,1,17.183,68Zm15.058-5.062H2.125v3.246a.664.664,0,0,0,.216.476.664.664,0,0,0,.476.216H17.183a.743.743,0,0,0,.692-.692Zm-3.246-1.125h3.246v-10a.743.743,0,0,0-.692-.692H14.629Zm-12.5,0H5.371V51.125H2.817a.664.664,0,0,0-.476.216.664.664,0,0,0-.216.476Zm4.371,0H13.5V51.125H6.5Z" transform="translate(-1 -50)" fill="#f33f41"/>
</svg>
