<svg xmlns="http://www.w3.org/2000/svg" width="18.122" height="18.169" viewBox="0 0 18.122 18.169">
  <path id="Path_35833" data-name="Path 35833" d="M21.681,249.032v7.731a1.845,1.845,0,0,1-1.845,1.845H8.772a1.845,1.845,0,0,1-1.844-1.845v-7.731m3.226-1.726L10.615,242m-.461,5.305c0,2.677,4.15,2.677,4.15,0m-4.15,0c0,2.93-4.756,2.325-4.09-.229l.964-3.7A1.845,1.845,0,0,1,8.812,242H19.8a1.845,1.845,0,0,1,1.784,1.379l.964,3.7c.666,2.555-4.09,3.16-4.09.229m-4.15,0V242m0,5.305c0,2.677,4.15,2.677,4.15,0m0,0L17.993,242" transform="translate(-5.243 -241.188)" fill="none" stroke="#f33f41" stroke-linecap="round" stroke-linejoin="round" stroke-width="1.5"/>
</svg>
