<svg xmlns="http://www.w3.org/2000/svg" width="33.041" height="37.871" viewBox="0 0 33.041 37.871">
  <g id="Notification" transform="translate(-8.25 -7.25)">
    <g id="Icon_-_Bell" data-name="Icon - Bell" transform="translate(9 8)">
      <path id="Vector" d="M15.854,0A13.144,13.144,0,0,1,26,4.792a10.016,10.016,0,0,1,2.216,6.839v.778a7.033,7.033,0,0,0,1.971,5.2,6.073,6.073,0,0,1,1.355,4.218,6.537,6.537,0,0,1-1.6,4.342,8.47,8.47,0,0,1-5.381,2.58c-2.915.245-5.832.451-8.788.451a78.5,78.5,0,0,1-8.788-.451A8.461,8.461,0,0,1,1.6,26.171,6.539,6.539,0,0,1,0,21.83a6.082,6.082,0,0,1,1.355-4.218,6.872,6.872,0,0,0,1.973-5.2v-.778A10.171,10.171,0,0,1,5.709,4.586,13.21,13.21,0,0,1,15.688,0Z" fill="#f33f41" stroke="#f33f41" stroke-linecap="round" stroke-linejoin="round" stroke-width="1.5"/>
      <path id="Vector-2" data-name="Vector" d="M10.807,0A2.836,2.836,0,0,1,9.518,2.144,6.8,6.8,0,0,1,6.34,3.479a7.151,7.151,0,0,1-1.87,0A6.768,6.768,0,0,1,1.291,2.142,2.826,2.826,0,0,1,0,0" transform="translate(10.367 32.83)" fill="#f33f41" stroke="#f33f41" stroke-linecap="round" stroke-linejoin="round" stroke-width="1.5"/>
    </g>
  </g>
</svg>
