<svg xmlns="http://www.w3.org/2000/svg" width="15" height="21" viewBox="0 0 15 21">
  <g id="Frame_1000003821" data-name="Frame 1000003821" transform="translate(-32 -8)">
    <path id="Path_35806" data-name="Path 35806" d="M39.5,8a4.983,4.983,0,1,0-.128,9.965.871.871,0,0,1,.234,0h.075A4.983,4.983,0,0,0,39.5,8Z" fill="#e6e6e6"/>
    <path id="Path_35807" data-name="Path 35807" d="M44.912,20.757a10.711,10.711,0,0,0-10.813,0A4.136,4.136,0,0,0,32,24.149a4.1,4.1,0,0,0,2.088,3.371,10.632,10.632,0,0,0,10.824,0A4.134,4.134,0,0,0,47,24.128,4.126,4.126,0,0,0,44.912,20.757Z" fill="#e6e6e6"/>
  </g>
</svg>
