<svg xmlns="http://www.w3.org/2000/svg" width="20" height="18" viewBox="0 0 20 18">
  <path id="Path_35853" data-name="Path 35853" d="M20.175,629.314c-.584-1.492-1.413-2.314-2.333-2.314a1.588,1.588,0,0,0-.7.167l-6.989,2.667H7.072A4.431,4.431,0,0,0,3.4,631.808H1.845a.454.454,0,0,0-.421.291,6.294,6.294,0,0,0,0,4.543.454.454,0,0,0,.421.291H3.4a4.444,4.444,0,0,0,3.221,1.951v5.655a.457.457,0,0,0,.452.461h4.262a.457.457,0,0,0,.453-.461v-1.487a.46.46,0,0,0-.3-.432l-.8-.3v-.434a.461.461,0,0,0,0-.917v-.481a.461.461,0,0,0,0-.917v-.459l6.465,2.467.007,0a1.589,1.589,0,0,0,.684.158c.92,0,1.749-.822,2.333-2.314a15.909,15.909,0,0,0,0-10.111Zm-18.013,6.7a5.365,5.365,0,0,1,0-3.281H2.92a4.613,4.613,0,0,0,0,3.281Zm1.361-1.64a3.586,3.586,0,0,1,3.549-3.615H9.616a10.929,10.929,0,0,0-.25,1.1.46.46,0,0,0,.365.535.444.444,0,0,0,.081.008.456.456,0,0,0,.445-.38,9.386,9.386,0,0,1,.342-1.37l5.2-1.985a6.945,6.945,0,0,0-.292.651,15.909,15.909,0,0,0,0,10.111,6.99,6.99,0,0,0,.293.654l-5.369-2.049a.446.446,0,0,0-.2-.048.4.4,0,0,0-.049,0H7.121a.4.4,0,0,0-.049,0l-.037,0A3.586,3.586,0,0,1,3.523,634.371Zm7.358,9v.7H7.525v-5.171H9.781v.661a.461.461,0,0,0,0,.921v.477a.461.461,0,0,0,0,.921v.753a.461.461,0,0,0,.3.433Zm8.453-4.29c-.425,1.085-.983,1.733-1.493,1.733s-1.068-.648-1.493-1.733a15,15,0,0,1,0-9.429c.425-1.085.983-1.733,1.493-1.733s1.068.648,1.493,1.733a15,15,0,0,1,0,9.429Z" transform="translate(-1 -627)" fill="#f33f41"/>
</svg>
