<svg xmlns="http://www.w3.org/2000/svg" width="18.666" height="18.666" viewBox="0 0 18.666 18.666">
  <g id="Group_4035" data-name="Group 4035" transform="translate(0.5 0.5)">
    <path id="Path_35846" data-name="Path 35846" d="M9.672,541.514a2.007,2.007,0,0,0,1.961,2.058H13.85a1.756,1.756,0,0,0,1.714-1.793,1.545,1.545,0,0,0-1.166-1.7l-3.56-1.237a1.545,1.545,0,0,1-1.166-1.7,1.756,1.756,0,0,1,1.714-1.793H13.6a2.007,2.007,0,0,1,1.961,2.058" transform="translate(-3.779 -530.623)" fill="none" stroke="#f33f41" stroke-linecap="round" stroke-linejoin="round" stroke-width="1"/>
    <path id="Path_35847" data-name="Path 35847" d="M13,534v10.6" transform="translate(-4.167 -530.467)" fill="none" stroke="#f33f41" stroke-linecap="round" stroke-linejoin="round" stroke-width="1"/>
    <path id="Path_35848" data-name="Path 35848" d="M14.483,547.666h-5.3C4.767,547.666,3,545.9,3,541.483v-5.3C3,531.767,4.767,530,9.183,530h5.3c4.417,0,6.183,1.767,6.183,6.183v5.3C20.666,545.9,18.9,547.666,14.483,547.666Z" transform="translate(-3 -530)" fill="none" stroke="#f33f41" stroke-linecap="round" stroke-linejoin="round" stroke-width="1"/>
  </g>
</svg>
