<svg xmlns="http://www.w3.org/2000/svg" width="22.75" height="22.75" viewBox="0 0 22.75 22.75">
  <path id="Vector" d="M19.486,19.341a.808.808,0,0,1-.145.145,11.354,11.354,0,0,1-15.932,0,.808.808,0,0,1-.145-.145,11.354,11.354,0,0,1,0-15.932.809.809,0,0,1,.145-.145,11.354,11.354,0,0,1,15.932,0,.809.809,0,0,1,.145.145,11.354,11.354,0,0,1,0,15.932ZM1.79,12.25a9.582,9.582,0,0,0,2.192,5.281l1.867-1.867A6.964,6.964,0,0,1,4.432,12.25ZM3.982,5.219A9.582,9.582,0,0,0,1.79,10.5H4.432A6.964,6.964,0,0,1,5.849,7.086L3.982,5.219ZM20.96,10.5a9.582,9.582,0,0,0-2.192-5.281L16.9,7.086A6.964,6.964,0,0,1,18.318,10.5ZM17.531,3.982A9.582,9.582,0,0,0,12.25,1.79V4.432a6.964,6.964,0,0,1,3.414,1.417ZM10.5,1.79A9.582,9.582,0,0,0,5.219,3.982L7.086,5.849A6.964,6.964,0,0,1,10.5,4.432ZM5.219,18.768A9.582,9.582,0,0,0,10.5,20.96V18.318A6.964,6.964,0,0,1,7.086,16.9ZM12.25,20.96a9.582,9.582,0,0,0,5.281-2.192L15.664,16.9a6.964,6.964,0,0,1-3.414,1.417Zm6.518-3.429A9.582,9.582,0,0,0,20.96,12.25H18.318A6.964,6.964,0,0,1,16.9,15.664Z" transform="translate(0 0)" fill="#f9e636"/>
</svg>
