<svg xmlns="http://www.w3.org/2000/svg" width="23.828" height="22.808" viewBox="0 0 23.828 22.808">
  <path id="Form_37" d="M18.314,22.808a1.564,1.564,0,0,1-.725-.179l-5.675-2.978L6.24,22.629a1.555,1.555,0,0,1-2.257-1.642c.218-1.274.539-3.15.788-4.6l.006-.033.289-1.687L.471,10.195a1.557,1.557,0,0,1,.863-2.655l6.345-.921L8.771,4.4l.139-.282L8.919,4.1l1.6-3.237a1.56,1.56,0,0,1,2.8,0l1.138,2.3c.679,1.374,1.381,2.8,1.7,3.447l6.345.922a1.555,1.555,0,0,1,.863,2.653l-4.6,4.475,1.083,6.319a1.554,1.554,0,0,1-1.533,1.819Zm-6.4-20.925L9.169,7.437A1.56,1.56,0,0,1,8,8.288l-6.126.891L6.306,13.5a1.559,1.559,0,0,1,.449,1.378c-.1.567-.295,1.717-.509,2.964l-.009.051c-.183,1.065-.376,2.195-.53,3.088L11.189,18.1a1.567,1.567,0,0,1,1.446,0l5.482,2.881c-.33-1.927-.842-4.91-1.047-6.1a1.559,1.559,0,0,1,.449-1.378l4.433-4.323-6.126-.891a1.558,1.558,0,0,1-1.172-.851C14.195,6.507,12.806,3.7,11.913,1.883Z" transform="translate(0)" fill="#fff"/>
</svg>
