<svg xmlns="http://www.w3.org/2000/svg" width="21" height="21.957" viewBox="0 0 21 21.957">
  <path id="Path_35835" data-name="Path 35835" d="M10.637,289.036c-.425.084-.642.235-1.466,1.024a6.016,6.016,0,0,1-.942.813c-.141.052-.241.046-1.088-.073-.514-.071-1.055-.131-1.2-.134a1.768,1.768,0,0,0-1.506.8c-.206.31-.249.462-.446,1.592a9.052,9.052,0,0,1-.226,1.06c-.075.146-.182.214-1.018.652-1.138.6-1.335.753-1.569,1.25a1.724,1.724,0,0,0-.171.847c0,.348.061.517.566,1.559A3.7,3.7,0,0,1,2,299.479a3.711,3.711,0,0,1-.431,1.055c-.5,1.042-.567,1.212-.566,1.559a1.724,1.724,0,0,0,.171.847c.233.5.43.653,1.569,1.25.836.438.943.507,1.018.652a9.084,9.084,0,0,1,.226,1.062c.09.518.19,1.026.22,1.129a1.776,1.776,0,0,0,1.676,1.26c.157,0,.715-.058,1.24-.131.868-.123.968-.13,1.109-.076a5.921,5.921,0,0,1,.942.812,4.724,4.724,0,0,0,1.04.872,1.793,1.793,0,0,0,1.578,0,4.726,4.726,0,0,0,1.04-.872,5.919,5.919,0,0,1,.942-.812c.141-.053.24-.047,1.088.072.514.071,1.055.131,1.2.134a1.768,1.768,0,0,0,1.506-.8c.206-.31.249-.462.446-1.592a9.046,9.046,0,0,1,.226-1.06c.076-.148.168-.206,1.126-.711.9-.476,1.1-.62,1.322-.947A1.739,1.739,0,0,0,21,302.157c0-.415-.038-.534-.566-1.623a1.508,1.508,0,0,1,0-2.111c.527-1.089.569-1.208.566-1.623a1.739,1.739,0,0,0-.311-1.027c-.219-.327-.419-.47-1.322-.947-.958-.506-1.05-.564-1.126-.711a9.049,9.049,0,0,1-.226-1.06c-.2-1.13-.24-1.282-.446-1.592a1.768,1.768,0,0,0-1.506-.8c-.149,0-.69.063-1.2.134-.848.119-.948.126-1.088.073a6.015,6.015,0,0,1-.942-.813,4.881,4.881,0,0,0-1.033-.87A1.79,1.79,0,0,0,10.637,289.036ZM9.053,294.09a2.213,2.213,0,0,1,.083,4.3A2.218,2.218,0,0,1,6.6,295.314,2.2,2.2,0,0,1,9.053,294.09Zm6.22.882a.605.605,0,0,1,.237.77c-.071.133-8.123,8.214-8.249,8.278a.628.628,0,0,1-.533-.036.605.605,0,0,1-.237-.771c.066-.125,8.115-8.208,8.242-8.277A.649.649,0,0,1,15.273,294.972Zm-7.109.382a.948.948,0,0,0-.56.887.97.97,0,0,0,.99,1,.991.991,0,0,0,.513-1.838A1.009,1.009,0,0,0,8.163,295.354Zm5.817,5.214a2.388,2.388,0,0,1,1.382,1.118,2.216,2.216,0,0,1-.336,2.509,2.139,2.139,0,0,1-2.578.489,2.2,2.2,0,0,1-1.233-1.833,2.244,2.244,0,0,1,1.632-2.285A2.69,2.69,0,0,1,13.98,300.569Zm-.8,1.158a1,1,0,1,0,.669.085A1.172,1.172,0,0,0,13.182,301.727Z" transform="translate(-0.5 -288.501)" fill="none" stroke="#f33f41" stroke-width="1" fill-rule="evenodd"/>
</svg>
