<svg xmlns="http://www.w3.org/2000/svg" width="19.333" height="16.697" viewBox="0 0 19.333 16.697">
  <path id="Path_35839" data-name="Path 35839" d="M11.271,393.059a4.413,4.413,0,0,1,1.532.189,3.205,3.205,0,0,1,1.59,1.336.592.592,0,0,0,.167.164.611.611,0,0,0,.218.09.625.625,0,0,0,.236,0,.6.6,0,0,0,.385-.253.6.6,0,0,0,.09-.215.59.59,0,0,0,0-.233.6.6,0,0,0-.09-.215,4.4,4.4,0,0,0-2.187-1.8,5.5,5.5,0,0,0-1.916-.259h-.024a.609.609,0,0,0-.427.175.591.591,0,0,0,0,.844A.609.609,0,0,0,11.271,393.059ZM8.25,388.885v.942a8.368,8.368,0,0,0-6.042,8,.594.594,0,0,0,.177.422.608.608,0,0,0,.427.174H18.521a.608.608,0,0,0,.427-.174.594.594,0,0,0,.177-.422,8.279,8.279,0,0,0-1.677-4.99,8.466,8.466,0,0,0-4.365-3.013v-.942a2.369,2.369,0,0,0-.708-1.686,2.439,2.439,0,0,0-3.418,0A2.369,2.369,0,0,0,8.25,388.885Zm2.417-1.193a1.215,1.215,0,0,1,.854.35,1.183,1.183,0,0,1,.354.843v.68a8.63,8.63,0,0,0-2.417,0v-.68a1.183,1.183,0,0,1,.354-.843A1.215,1.215,0,0,1,10.667,387.693Zm0,2.982a7.307,7.307,0,0,1,4.909,1.888,7.123,7.123,0,0,1,2.317,4.671H3.441a7.123,7.123,0,0,1,2.317-4.671A7.307,7.307,0,0,1,10.667,390.674Zm-7.854,8.945a1.824,1.824,0,0,0-1.282.524,1.773,1.773,0,0,0,0,2.53,1.824,1.824,0,0,0,1.282.524H18.521a1.824,1.824,0,0,0,1.282-.524,1.773,1.773,0,0,0,0-2.53,1.824,1.824,0,0,0-1.282-.524Zm-.6,1.788a.594.594,0,0,1,.177-.422.609.609,0,0,1,.427-.174H18.521a.609.609,0,0,1,.427.174.591.591,0,0,1,0,.844.609.609,0,0,1-.427.175H2.812a.609.609,0,0,1-.427-.175A.592.592,0,0,1,2.208,401.408Z" transform="translate(-1 -386.5)" fill="#f33f41"/>
</svg>
