<svg xmlns="http://www.w3.org/2000/svg" width="20" height="20" viewBox="0 0 20 20">
  <g id="Frame_1000003822" data-name="Frame 1000003822" transform="translate(-30.5 -11)">
    <path id="Path_35809" data-name="Path 35809" d="M43.23,11H37.77v4.36h5.46Z" fill="#e6e6e6"/>
    <path id="Path_35810" data-name="Path 35810" d="M44.73,11v4.36h5.64C49.86,12.61,47.83,11.01,44.73,11Z" fill="#e6e6e6"/>
    <path id="Path_35811" data-name="Path 35811" d="M30.5,16.86v8.33c0,3.64,2.17,5.81,5.81,5.81h8.38c3.64,0,5.81-2.17,5.81-5.81V16.86Zm12.44,8.32-2.08,1.2a2.6,2.6,0,0,1-1.27.38,1.641,1.641,0,0,1-.82-.21,2.051,2.051,0,0,1-.9-1.89v-2.4a2.051,2.051,0,0,1,.9-1.89,2.03,2.03,0,0,1,2.09.17l2.08,1.2a2.052,2.052,0,0,1,1.19,1.73A2.057,2.057,0,0,1,42.94,25.18Z" fill="#e6e6e6"/>
    <path id="Path_35812" data-name="Path 35812" d="M36.27,11c-3.1.01-5.13,1.61-5.64,4.36h5.64Z" fill="#e6e6e6"/>
  </g>
</svg>
