<svg xmlns="http://www.w3.org/2000/svg" width="24.133" height="21.869" viewBox="0 0 24.133 21.869">
  <g id="Group_4022" data-name="Group 4022" transform="translate(-2084.25 -410.249)">
    <path id="Path_35823" data-name="Path 35823" d="M21.675,108.746v2.293a1.152,1.152,0,0,1-1.166,1.134H18.326a2.4,2.4,0,0,1-2.444-2.08,2.213,2.213,0,0,1,.679-1.813,2.273,2.273,0,0,1,1.63-.668h2.32A1.152,1.152,0,0,1,21.675,108.746Z" transform="translate(2085.957 313.133)" fill="#f33f41" stroke="#fff" stroke-linecap="round" stroke-linejoin="round" stroke-width="1.5"/>
    <path id="Path_35824" data-name="Path 35824" d="M18.517,108.985a2.213,2.213,0,0,0-.611,2.2,2.454,2.454,0,0,0,2.41,1.691h1.052v1.614a4.488,4.488,0,0,1-4.526,4.449H5.526A4.488,4.488,0,0,1,1,114.491V106.7a4.488,4.488,0,0,1,4.526-4.449H16.843a4.5,4.5,0,0,1,4.526,4.449v1.614H20.147A2.273,2.273,0,0,0,18.517,108.985Z" transform="translate(2084 312.427)" fill="#fff" stroke="#fff" stroke-linecap="round" stroke-linejoin="round" stroke-width="1.5"/>
    <path id="Path_35825" data-name="Path 35825" d="M1,108.244v-5.139A4.138,4.138,0,0,1,5.176,99h6.36c2.308,0,4.176,1.412,4.176,3.682" transform="translate(2084 311.999)" fill="#fff" stroke="#fff" stroke-linecap="round" stroke-linejoin="round" stroke-width="1.5"/>
    <path id="Path_35826" data-name="Path 35826" d="M12.79,107.169H6" transform="translate(2084.658 313.074)" fill="#f33f41" stroke="#f33f41" stroke-linecap="round" stroke-linejoin="round" stroke-width="1.5"/>
  </g>
</svg>
