<svg xmlns="http://www.w3.org/2000/svg" width="14.953" height="16.617" viewBox="0 0 14.953 16.617">
  <g id="Group_4209" data-name="Group 4209" transform="translate(0.5 0.5)">
    <path id="Path_35828" data-name="Path 35828" d="M15.627,159.071h-.589a2.316,2.316,0,0,0-1.643.674l-1.326,1.31a1.568,1.568,0,0,1-2.194,0l-1.326-1.31a2.329,2.329,0,0,0-1.643-.674H6.325A2.313,2.313,0,0,1,4,156.769v-8.457a2.313,2.313,0,0,1,2.325-2.3h9.3a2.313,2.313,0,0,1,2.325,2.3v8.457A2.317,2.317,0,0,1,15.627,159.071Z" transform="translate(-4 -146.01)" fill="none" stroke="#f33f41" stroke-linecap="round" stroke-linejoin="round" stroke-width="1"/>
    <path id="Path_35829" data-name="Path 35829" d="M12.205,157.17a.825.825,0,0,1-.434,0c-1.008-.349-3.271-1.783-3.271-4.225a1.938,1.938,0,0,1,3.488-1.17,1.938,1.938,0,0,1,3.488,1.17C15.469,155.387,13.213,156.821,12.205,157.17Z" transform="translate(-5.012 -147.132)" fill="none" stroke="#f33f41" stroke-linecap="round" stroke-linejoin="round" stroke-width="1"/>
  </g>
</svg>
